<svg width="146" height="41" viewBox="0 0 146 41" fill="none" xmlns="http://www.w3.org/2000/svg">
<path d="M21.9728 39.3441L0 1.65576H12.3688L28.0844 28.7914L21.9728 39.3441Z" fill="#A4E6EF"/>
<path d="M14.115 1.65576H25.9017L34.8668 17.0803L28.9676 27.2664L14.115 1.65576Z" fill="#A4E6EF"/>
<path fill-rule="evenodd" clip-rule="evenodd" d="M43.8 1.65576H29.9761L34.6326 2.67437C35.0082 5.0221 36.2101 7.15843 38.0217 8.69827L38.1249 8.78599L36.8052 13.7335L43.8 1.65576ZM38.707 5.43915C39.1892 5.43915 39.5801 5.04825 39.5801 4.56606C39.5801 4.08387 39.1892 3.69297 38.707 3.69297C38.2248 3.69297 37.8339 4.08387 37.8339 4.56606C37.8339 5.04825 38.2248 5.43915 38.707 5.43915Z" fill="#A4E6EF"/>
<path d="M62.3634 31L53.545 10.56H58.655L66.3638 28.664H63.3562L71.1818 10.56H75.883L67.0354 31H62.3634ZM77.2976 31V10.56H82.028V31H77.2976ZM93.3029 31.3504C91.6677 31.3504 90.1006 31.1363 88.6017 30.708C87.1027 30.2603 85.8958 29.686 84.9809 28.9852L86.5869 25.4228C87.4629 26.0457 88.4946 26.5616 89.6821 26.9704C90.889 27.3597 92.1057 27.5544 93.3321 27.5544C94.2665 27.5544 95.0159 27.4668 95.5805 27.2916C96.1645 27.0969 96.5927 26.8341 96.8653 26.5032C97.1378 26.1723 97.2741 25.7927 97.2741 25.3644C97.2741 24.8193 97.0599 24.3911 96.6317 24.0796C96.2034 23.7487 95.6389 23.4859 94.9381 23.2912C94.2373 23.0771 93.4586 22.8824 92.6021 22.7072C91.765 22.5125 90.9182 22.2789 90.0617 22.0064C89.2246 21.7339 88.4557 21.3835 87.7549 20.9552C87.0541 20.5269 86.4798 19.9624 86.0321 19.2616C85.6038 18.5608 85.3897 17.6653 85.3897 16.5752C85.3897 15.4072 85.7011 14.3463 86.3241 13.3924C86.9665 12.4191 87.9203 11.6501 89.1857 11.0856C90.4705 10.5016 92.0765 10.2096 94.0037 10.2096C95.2885 10.2096 96.5538 10.3653 97.7997 10.6768C99.0455 10.9688 100.145 11.4165 101.099 12.02L99.6393 15.6116C98.6854 15.0665 97.7315 14.6675 96.7777 14.4144C95.8238 14.1419 94.8894 14.0056 93.9745 14.0056C93.0595 14.0056 92.3101 14.1127 91.7261 14.3268C91.1421 14.5409 90.7235 14.8232 90.4705 15.1736C90.2174 15.5045 90.0909 15.8939 90.0909 16.3416C90.0909 16.8672 90.305 17.2955 90.7333 17.6264C91.1615 17.9379 91.7261 18.1909 92.4269 18.3856C93.1277 18.5803 93.8966 18.7749 94.7337 18.9696C95.5902 19.1643 96.437 19.3881 97.2741 19.6412C98.1306 19.8943 98.9093 20.2349 99.6101 20.6632C100.311 21.0915 100.875 21.656 101.304 22.3568C101.751 23.0576 101.975 23.9433 101.975 25.014C101.975 26.1625 101.654 27.2137 101.012 28.1676C100.369 29.1215 99.4057 29.8904 98.1209 30.4744C96.8555 31.0584 95.2495 31.3504 93.3029 31.3504ZM109.569 31V22.6488L110.649 25.5104L101.655 10.56H106.678L113.569 22.0356H110.678L117.599 10.56H122.241L113.248 25.5104L114.299 22.6488V31H109.569ZM132.973 31.3504C131.357 31.3504 129.858 31.0876 128.476 30.562C127.113 30.0364 125.926 29.2967 124.913 28.3428C123.921 27.3889 123.142 26.2696 122.577 24.9848C122.032 23.7 121.76 22.2984 121.76 20.78C121.76 19.2616 122.032 17.86 122.577 16.5752C123.142 15.2904 123.93 14.1711 124.943 13.2172C125.955 12.2633 127.142 11.5236 128.505 10.998C129.868 10.4724 131.347 10.2096 132.943 10.2096C134.559 10.2096 136.039 10.4724 137.382 10.998C138.745 11.5236 139.922 12.2633 140.915 13.2172C141.927 14.1711 142.716 15.2904 143.28 16.5752C143.845 17.8405 144.127 19.2421 144.127 20.78C144.127 22.2984 143.845 23.7097 143.28 25.014C142.716 26.2988 141.927 27.4181 140.915 28.372C139.922 29.3064 138.745 30.0364 137.382 30.562C136.039 31.0876 134.569 31.3504 132.973 31.3504ZM132.943 27.3208C133.858 27.3208 134.695 27.1651 135.455 26.8536C136.233 26.5421 136.915 26.0944 137.499 25.5104C138.083 24.9264 138.53 24.2353 138.842 23.4372C139.173 22.6391 139.338 21.7533 139.338 20.78C139.338 19.8067 139.173 18.9209 138.842 18.1228C138.53 17.3247 138.083 16.6336 137.499 16.0496C136.934 15.4656 136.263 15.0179 135.484 14.7064C134.705 14.3949 133.858 14.2392 132.943 14.2392C132.029 14.2392 131.182 14.3949 130.403 14.7064C129.644 15.0179 128.972 15.4656 128.388 16.0496C127.804 16.6336 127.347 17.3247 127.016 18.1228C126.704 18.9209 126.549 19.8067 126.549 20.78C126.549 21.7339 126.704 22.6196 127.016 23.4372C127.347 24.2353 127.795 24.9264 128.359 25.5104C128.943 26.0944 129.624 26.5421 130.403 26.8536C131.182 27.1651 132.029 27.3208 132.943 27.3208Z" fill="#A4E6EF"/>
</svg>
